<mxfile host="65bd71144e">
    <diagram id="HIP3nbAZw_EuaXWnEj3U" name="Page-1">
        <mxGraphModel dx="1178" dy="1017" grid="1" gridSize="10" guides="1" tooltips="1" connect="1" arrows="1" fold="1" page="1" pageScale="1" pageWidth="850" pageHeight="1100" math="0" shadow="0">
            <root>
                <mxCell id="0"/>
                <mxCell id="1" parent="0"/>
                <mxCell id="7" value="http://ics2o.mths.ca" style="swimlane;whiteSpace=wrap;html=1;" parent="1" vertex="1">
                    <mxGeometry x="40" y="40" width="760" height="480" as="geometry"/>
                </mxCell>
                <mxCell id="8" value="https://icd2o-1-teh.type-code.cloud/~lucas.nguyen/ICD2O-1/Unit-3/ICD2O-Unit-3-02-lucas-nguyen0/" style="swimlane;whiteSpace=wrap;html=1;" vertex="1" parent="1">
                    <mxGeometry x="40" y="30" width="760" height="490" as="geometry"/>
                </mxCell>
                <mxCell id="9" value="&lt;font style=&quot;font-size: 20px;&quot;&gt;&lt;span style=&quot;white-space: pre;&quot;&gt;&#x9;&lt;/span&gt;&lt;span style=&quot;white-space: pre;&quot;&gt;&#x9;&lt;/span&gt;Volume&amp;nbsp;of a Right Rectangular Pyramid, in JS&lt;/font&gt;" style="rounded=0;whiteSpace=wrap;html=1;align=left;" vertex="1" parent="8">
                    <mxGeometry y="23" width="760" height="47" as="geometry"/>
                </mxCell>
                <mxCell id="10" value="Please enter the following:" style="text;html=1;align=center;verticalAlign=middle;whiteSpace=wrap;rounded=0;" vertex="1" parent="8">
                    <mxGeometry x="20" y="87" width="149" height="30" as="geometry"/>
                </mxCell>
                <mxCell id="11" value="&lt;font style=&quot;font-size: 16px;&quot;&gt;base length&lt;/font&gt;" style="text;html=1;align=left;verticalAlign=middle;whiteSpace=wrap;rounded=0;" vertex="1" parent="8">
                    <mxGeometry x="20" y="120" width="110" height="30" as="geometry"/>
                </mxCell>
                <mxCell id="12" value="" style="endArrow=none;html=1;" edge="1" parent="8">
                    <mxGeometry width="50" height="50" relative="1" as="geometry">
                        <mxPoint x="20" y="190" as="sourcePoint"/>
                        <mxPoint x="240" y="190" as="targetPoint"/>
                    </mxGeometry>
                </mxCell>
                <mxCell id="13" value="&lt;font style=&quot;font-size: 14px;&quot;&gt;base length (in mm) ...&lt;/font&gt;" style="text;html=1;align=left;verticalAlign=middle;whiteSpace=wrap;rounded=0;" vertex="1" parent="8">
                    <mxGeometry x="20" y="160" width="180" height="30" as="geometry"/>
                </mxCell>
                <mxCell id="14" value="&lt;font style=&quot;font-size: 16px;&quot;&gt;base width&lt;/font&gt;" style="text;html=1;align=left;verticalAlign=middle;whiteSpace=wrap;rounded=0;" vertex="1" parent="8">
                    <mxGeometry x="20" y="210" width="120" height="30" as="geometry"/>
                </mxCell>
                <mxCell id="15" value="" style="endArrow=none;html=1;" edge="1" parent="8">
                    <mxGeometry width="50" height="50" relative="1" as="geometry">
                        <mxPoint x="20" y="280" as="sourcePoint"/>
                        <mxPoint x="240" y="280" as="targetPoint"/>
                    </mxGeometry>
                </mxCell>
                <mxCell id="16" value="&lt;font style=&quot;font-size: 14px;&quot;&gt;base width (in mm) ...&lt;/font&gt;" style="text;html=1;align=left;verticalAlign=middle;whiteSpace=wrap;rounded=0;" vertex="1" parent="8">
                    <mxGeometry x="20" y="250" width="180" height="30" as="geometry"/>
                </mxCell>
                <mxCell id="17" value="&lt;font style=&quot;font-size: 16px;&quot;&gt;height&lt;/font&gt;" style="text;html=1;align=left;verticalAlign=middle;whiteSpace=wrap;rounded=0;" vertex="1" parent="8">
                    <mxGeometry x="20" y="310" width="60" height="30" as="geometry"/>
                </mxCell>
                <mxCell id="18" value="" style="endArrow=none;html=1;" edge="1" parent="8">
                    <mxGeometry width="50" height="50" relative="1" as="geometry">
                        <mxPoint x="20" y="380" as="sourcePoint"/>
                        <mxPoint x="240" y="380" as="targetPoint"/>
                    </mxGeometry>
                </mxCell>
                <mxCell id="19" value="&lt;font style=&quot;font-size: 14px;&quot;&gt;height (in mm) ...&lt;/font&gt;" style="text;html=1;align=left;verticalAlign=middle;whiteSpace=wrap;rounded=0;" vertex="1" parent="8">
                    <mxGeometry x="20" y="350" width="180" height="30" as="geometry"/>
                </mxCell>
                <mxCell id="20" value="&lt;font style=&quot;font-size: 16px;&quot;&gt;ENTER&lt;/font&gt;" style="rounded=0;whiteSpace=wrap;html=1;" vertex="1" parent="8">
                    <mxGeometry x="20" y="400" width="80" height="40" as="geometry"/>
                </mxCell>
                <mxCell id="21" value="The area is: xmm&lt;span style=&quot;color: rgb(0, 0, 0); font-size: 11px; text-align: center; background-color: rgb(255, 255, 255);&quot;&gt;Â³&lt;/span&gt;" style="text;html=1;align=left;verticalAlign=middle;whiteSpace=wrap;rounded=0;" vertex="1" parent="8">
                    <mxGeometry x="20" y="450" width="149" height="30" as="geometry"/>
                </mxCell>
                <mxCell id="25" value="" style="shape=image;verticalLabelPosition=bottom;labelBackgroundColor=default;verticalAlign=top;aspect=fixed;imageAspect=0;image=data:image/png,UklGRlRXAABXRUJQVlA4TEhXAAAviYKlAFWL47aRHKmk/LPucd1n3hExAdkC5FsSTlj6Fvz+zKmMAVRGCugEGTvCBWBbTWh3imwHrW2Ya4M3Y72wA88+WHd27ZU/VMfss9w551hvINScrvYqvs4lnXKeX+zpBfsTuheskxYCJCUzy8ybHF+9Fqv1/+tvubmJqKg4zpXRDeQKcgfJbeBhZt7MzMxMZ63v7/OF/f+f2TO/n9kqiYokxSBnorJ20PM5LsyoM+r8wtlq/isyjpmZOZojmcqMilQdsxxZOeeUubWMg/bElltVh4ohqEuKue+Cm6nqGlfmoMpeowKuzMytY2buBTC4pIqZdhkugemfchWpbFfZRJaZ209BMkkmF9ZlZvzbOmZubVzJMzOHXbnVs6LKoFKXNe6sIyccXcetyzpdECVJMm31uX/0bNu2bdu2bds2rvVs27bpMADQtI0HJ0Aqc/f1XxYk2XHb9OZyzicXRYMAqCQgv3Qh//d8UyRt7Jzj5JyD2zn35Jxz6py7nZxzDm7nPLlz9+Q8nXPOOdb05nyWc96t93ffz/Pc9+++/8//3VQnDUKBaKHLJC0a3TTR2mDTICuUR5vfgxIXe4N0cPIItgdvx0kWgpNk3gPRDrpYbpo8YwecPHZic5rsUSdxcqoDEaFAkJK+ZXJSsJkgL1RH3SATquekXRRlns5HTihaaClodXLavCt9VNUI7kqTtBEKhJIJwoNHujk0dVCTj9qGmigTpARF0PegmNypZIrNuWY2b6dqQTpIK11MTo4bFCbLhE6m7aKOJtm9OUsjgiIUJVN9tEkUys1BPNok94D2yeRUGyc60Zq1kTXA5BkHpaDpSU4skInVtWGyiPaJR3okNRQ4yORksYhCe9RJex2cJArlCvYIopt3RSg25xwnFcLm0MFiHQpskatt29o2b3x6OYBu3Trj1rlbd2YQOYkkO2Y7ipXIjJIMkplkZsbYYdtGjpyS09zH/nujbTdva9u2Wuf+/kocTxsESQAC9y8r+/+vu6Ssu/vizuJul7O4uy/u7uuCu7u7u7u7u7u7XS4X6ZzP9/f//f53uf8/3JI/AYfkkDwtibbacU5f+iTaJtzTmYQmHoF7ckjupNUn4N/ttE3nujvNziT8dNJOx0kOydOZhM01iQ59Es05ia73tR0n7Y1bcidt20TzaNGdNA+AuNpxkkNyVhNu9ySc5Hyx5O6kQ/In4O6k2UR3SDvWNs1JaKKRBtekJ6JtE9pIc612nOSQ3JtfEf2nRdt23LbZ73ZuZXQWQeCBUf5Go1lpQEsDj4QOhQ2DNTrDobGQGgA7YMkBDoHFg6sA3PjUoWWCPjoa4nyJgwRDx7GHkgQeAb1vh8sjhULZc1nJKJiz5Yvv1KM72EhIBtjREgXOBrEnjbtTR4unt+kQaAXAwTJuFNRQ9aEsjTx3IthQMjgVpJRduSYGnK1UrJrHVe0qqTazcEtkV60ZuTsffYETOChfdPIQiilp55wtDGJk9F/LaViDRX5Lbd4thFSLI6wIYCQXNKdSgudlFM/fSjE1Pa5sppNqY21vRLjqm9Tw+Q/CQW7LQh5CWsrezikDhkNMVB/JiV33M/ayl0WT8tNM5AMjoY4aX27j0uESexHf6eypPpZY+5vryvayGCK6Euzg8e06WPTnKtDvdOpUn0isw811dfayWCJuwpHjy21eQkS/rooiiyd5MZpjRvO9Gorv7Eaw0yavdb4tV0OdJRJeSoCBpMBTpM6zhRYarvRuaYlzuXpQCTtaWsJV3kRHS0vL0zkWrtltjL30BRmIsbgri4xQf0kqNuyVk0JOcQ7XOOfrjWbmb0uYMVat5pxzm5bk8ON7xbtckoJPWcWbstnusxSNl/qxFU2Uyua2mpa0v67kiFNmwbZosurfUGf0f7ufrPLNdc0b53RNDDw/ZQkrRn83rYYP+L307H2i73mGeW82u2atWDNzdc9Ud080AZuulBMx5ne5jlCpT2bxtuEdZLV3nBx5CuL7S8VEaj8frRFOHu96DeL500puKy19X/dEKrvcaoTaS64wVPaTVbL5IKW6O0rP2IWIf+WCovQfBYNTwMwxpQebkb9jW25sasJBXXaE9qtyx6iqPb1WZTGZRVtjxeTscBUJV35XrJusal+jjB7qGl+1bL4rFJHri9QFfVztFZko5Uaw4M8l0lL3bMuNjXe/upp80cktdY/0b5pi8rsmU5qGcYjEt3JTqfJV/yJXk3c9piS3dQni/esKetXN6ZWvuPRAUmKOAZvsq1tbo80e9CNva2sJJ5lT4o6uNi0NnyD8Oylh1gitV6TuM4j/T4RKfuqe6clbWy+MiNR7tra2PrlgkgiN191bas44VObjutpP5ctOP+D/p76gCM1X/TPqLEd67iQFndrYnmr0b1TCCJe44e+tOtSbKqZlcuiRbqOvzNzwCWSn2HKbzHUPlBx1IrXktc+630hl4vzxHtdok4fckH1pZg58nEuFSn/iHK83HKb4kZ8an2G1d79I3v9fYKzdLUTsK5XwrRrVpyLVmeB12SXbcoEowweRXbGqj1PC5N+75Psh1ZTQg/TWx9rcrFJy6ldTs85Se8fMXHtNvy41KMSW/nsuEab02VEbc6B0OmakVeTUrkJa8t6lZT8yM4/N65xDJL607H9Sqr2hw7rEe30G23Nlc51UkOh3ZimzkDKuh4vpSVwSqeXRXqdgYKo+EWZTd8I0Pye3W3kG+rnmimk99a/4IkS42jvALddM7Fvaz1ZuGf3OX1eZescuscL6d2SbLj19R2xUdm/En3D5khMRWq+ba2vs2M7hWOIbR6QmHbjunv6TeE7F8TttMdwbF44O1/Ihb83yYRNt97bJUqKPMdZ3l3iRT2e7LsbyTqSl7Y8nZRYiwfvCDZ8gPZYPOdzxHq3+BRvjmCwnr20mYqzu0tuR+k9WJMHnQuTUrdLbl86yhi/YHCnkXWVSG3f5dffEtp3+AJuY39pHKxIk8L/RXzU3SaFy12hjgHNqFuJ1VHIbFiI17sDzEr/HisR7XomisZK51Hxs303Uoh1EzPVvOKOyjhP+XMBQsPCPFSYRIWJfPh7xAirfS7wiz0/sQeUEtC9A60OqT8W+CxL8m7ljZn7rfasrOZ4B0kGp8ta0U30M4MbY3Ntsu62RLfl1dLlHUtwlPfdyFWYdb/hG7S0r/BM9NvfWG5pklW5suxOT7dv4OPnuS6fiMi9QGve7D0MFQ5N2Q5+BH402Kwx+itQv1a7/KZXbpvIhX0S76L/ZrsvI2ZEK8jpmhTvJrl5PLqt7phYyfSwje0c7kgy9hU+e9ROp/SQy8nZcd0/02PtHZVUHSusYz4VjgzZgFYfkZ6Z98D6Fjq+mpblv+kF20fgrj3/PwPRmyzcTYXLvmkuWN9hgoZ/rvs3kE/Ft5ndOKbHHGf/z0mgt/082VdMe9aekApNdomyhM78XPXivuWCqJdr0QcpYWYA/iL534t2uY6UedTot7VHZQlomf8m8FpcWYw89/s+6dq2XepFTNH2YrnfPT0ekxxOV2/Y2tIOddm9GGT3uiGzdC5AnlvF4d3LY8TTWebVX4BKRus8AS2+6YQqf21aPMn4WM0tPkpl/VT3KWLllCqnxB2vvL008arWB1n4gYn/twi46XdOHIR87K90WZ8gq2zzQC1zKRNovHuALo0M378pc/47LpnMkzGdezBqp85zrGuUaCkcGi2hmXkgf5++ImW/GaObFQbWz0dY6KxEq8zmg3fPsTR1Dk/p84CLRKZm+HsOX7moz5VeZ6+5pc7SG4x5WmjK7UQMm+XF6rsOn6uu5PrqjP4zBbLRrrH9BzQxd1Q77AgO2zpQn25Om63OBpRCycFJ6StsV6Mz6QCxSODxm1RRzs2ym49k1vZ9TTWfoXt/vGc/QXaD6RFhvMy20pF3bOLO+5X1qY51vyYQujJSNRz8d7z+Vrnk1tJr5Tqg072YMbU69sd+wYsix6lCjjR+a7fx+WM6jrUftvX7G6PyZA08hlnsiW6UcGAZV+YNHZrPkAZZE2EJJpfCbwXBWzlk/8nP/p2RiUsjprlnKNmaWbe5sbWyKT5Pge5Eqvsb83inAioz+afMtoDqT6+5ZOQKkPJPrvQ3P5OLLpGWNuyNvilq0IKjscDfH5kkFbL0/QZI0UJdUdgQOkI5lRQ6Y3z390Y8f7sf/KL9nelXNK4Z+1rZu+P+e+9K/V96Gd0mq/XRiqlXCWzNz9Zk8waWnxB7bd/2r2gal726e9boOF+dwNTq79e6Pub43+Tjd2a0Nn0Aezo3LFa+U5keE+gsOcdCz9qu7Kl/xZ4G0bdEk88+N8x6TfycEVgDyqPseAte2hdkVzhGV7+T9OpWA4TCPSgAnQuwLHWOo4qbo1yUGcjIPKgLeKdsWBsmkWjAlvy7BsCf2mDzgYPgXT2cxwTwobuGU/bsDA18zB9QA8IQyQAj0BmsBPF3FDIpmVbVoKn5dqgER0Dv9yVGwp29kRsCGwo/5DdNheuA6wOpq8VTFz6vAzwtZlPg11Ud2qpZMTWxdDZudq6VTt3QmukqUzypVadk0rJwZxzMaYKHKn235NC2cOXScUVvLK4SV1QoLl1IY5XltKYjV1app2zYjzJ0oVaRAImznctSXM2plZpFVEo+NZagSpmvTzHSBjIJjEZHHMqmen9q+JdAZJnoqEWKpNoyUDKG107NmymaiebuMlMy0xjUSktZN35IZeZgasUQKK3RXRkTS+m1bMZNbDxNdFsAK+c1IovIi7xBsWGbeGiYKqw7freKrcGQNWGR4JG16pPUS6hJTQyBr0kDxOIcZsmnpF1MdDJG9XPiGFGczGxGRd5BLp7Y0abeMJkytcgqCZou3vbsPuiYRNSySRKuVlNmZ6q8QmUHbxwtiYTJ9GCTRM7FXZnlnpto8e8VgQDulEo6sfsNYhh4m2aW1eoWuM5X8JtVFPGiXDBZ3LgRgMEMhufDMLJUBsEJfROFcoD3y14JhAKMWh2SyU2lEdTsxflbKZRigvSLvBZ0TrKeRbOTFFsrcimQqOEb19gXQfpFr4/sFuoWmjiDJX62TzIms0ANRmiHOaopIJhhBWUKqCZLLzMI2KYkVim1SbTmgQxGGiguDFFfzgyFpn2XKwFll+KJ2K1CiiGTOTlYG0RoUSTXpbJKxx6qkFQfTAR2ViOo9eLiyhRnJ4SxSkophhfUkOZkWyBVpMvAPfDilKGpgJB2u0xap/MKscjdxcjnQSRjD4WAMfRVVDZSMdlm2KD1ilRwBRxsDnQLDBUVVLqoaEBnvyTJbIU2wymMnqzG/Cf6M/9HGRo7vEGXtl4z44TYo4zm1Uj/E2UXVl08bJtPr6uo/GXInZmN9HP54rHLkBJ0VaqAL5F8HvLc4KVFX/8igd257knAZVkkev2h4KqhMsFYCeisOVSkZdqcrtzt6yUpnEh1x6v2F0hxu8qpTd6/Dn61OhkzWWuCix3VoWRHoKvGB5sMw1ihO1Xc6G59gb0ygGeUPPFrRclcQI6TKIUvHHevTJJ23NllOLaysM4ueSYBuKm4D4ebWCeu3Tuli/XbGB25B9g+Chk+uaWKg20KrMdIzyrnKIKnMzuRMDLIzmSfXNBHQHdUGWPBynSXipZN0xcZkmAzOG8SpH9G1ZWwKpRBYOwzkWCadmHN+wLq4dgH4CvgHvFz/jJc3gbWJos4J2ig6VTJJjG3JI39N1jQyuI5oSwN6qPI5vCs5btGpPpN0w66kvIeTH2JBuwP6fgt6LKqqDXRPtKpPJCnKsyn+RVrJR+MBWEcVfWcBPVGqGJs4Nml08cU7syjJGAT/JBfaNxYDqUHP1D0qrolNHPWEekf73pZnWY7XCA4Ov0C5lZsYB+iFKGsgoNUhzfSG5GcBOyIgA4PSXgivFD6LmBgb6JVakzgFP2bRTK/pbm0rksALyUJGMpN5OzFSsdbQPpxYA9fN0kky2JCUSbrupMRNCLX81bBNj9ZKyF7h9Opz2nkvyWbsR5rDVzjvxEm/iVGKmcNqrZgkgjj2R7STniR9yHKIWw+D4dTHZHmPodGDf2zEH8Cz9wP6bzs2Q7J0u5EXX5PB7tfxa1D1ckzVh6M0/OHxWv9Aop8MNiShBTHoyAfI5PfQxNT6SEtRI10F1+OKQfZDcjuLkZOSR33ZdppkbG8SMvZKkNPkHrXky5nkZyRftBYZVRjX5G454cj4Yo2KsVGQk84NdWHze0LlPZtuDwvZjeM1Xi/9ZHKr0NzIwADG7B185wNGSUHSBythHUcm/6eWuMfijqzyXPB4EMmYOuuB8TxejNItkt1bjOM1qqk/kAMPGFqGuCAV6aVsrO1jFz3D/Tm1WYXodc75zq3IPCQ3Lm6IAkOZYNJ4q3xvhokh+ZdtMAa8Sn/s+CQJJ9UPuhB31q2BqrUJVePKP9sfyEmyYTtxvEYdImlxLdoDxRU1gec0w5JwT6xp45P6b0jSuE1Q506YrrXNSJ6xxNUHbLsGA+hBHJckpqmMZFH24XiNjSRIkxXh1ziXq3tgt2vh4EM1YpwFkdzYGtgGeeTeJYqQG4CrFpeUA3hlU3xX6J0fwXo8vrQkfbMExroCnC4ap0gjQdJ1zC3pATegTWlMwFY1u7EtK+ByH2FQs0id8dj65Fau+d6A/VpxtidrV1tW5S8k+a4FsJB2sKKDxPkYDElc8+8Bl27gGzIK4vi9NcNRqTU4XiN6ISJvwsnMz4Tc8zMBt6jN6TfCII5M/hFcCclzPD56J6fhg4jUj19vtynFPRcCLAVJOTD8x6kRpuN33l7qU4MVVCwi5/TBP4cjAb6yNqm2iXAALJT5ZCSX9vKqOx4r3mL+AHdIJ37ATU2ZCo5nIogj2/F27y5hIwy+LiKhw+F/lbfsg29ywUgGGAdx/AOMFpc+Q7INz47sv99JnYqrHv6XL06cXqs2q+3CirK0uwkezKP7KYMiLioi1eGq2jdkdtcPhcWNGWAiiGOv4k6lOxzJMj25NLgmPHmREuHQ9FFT3XXpVt2eVRJBHN1KNSQ1e+PpNVasfCas0zJpBuqy/Vr1mg8BT4Y16dq2iRwkI3nd1E/+25czJCK7fACuvVipb56jqDXzBDVMrP24VX+9DMlavW1IO89trkMikCY5UeK2VwasSpvX28A6kkPutb7YCMnP9K7ZNP7DVs8PYBVQEM+uEtftDdCgBcaCid4qFteTugdvmvJKgm+1HMChDWvjricMe67BVLoirSaOzWp2Olcmkr17Zwmz03cjxlKEP5I9zwmoyUTzRBBHluPCJJfyyrJUA99nbYOQdh3AHboVB3GgakCtYlLDE0EcGWqX0STz9sJo+x8bBmvRfvA9ly2x5sBQgBG4cEd8/YFM44u3Df+iJG/aE3sIIr1GsbBwEp4bZH8jIJXDtY92E0eWajKR5B0eWKFJoY/mj8EzV7XCHH8pOQYDf7wYVUNEsRxsR+2eOQFt0A83B1VDlprKhQFYHEAsD+4sGohxusJKGEdbq8cVWAuRXiOQehhLrVfzIRZgd2JWcBI+FGuXwtdIMnpbl0M891cA3KeTP5zK7JgTOZnkRbhWIogj6yervDNJlJf1x8j0GvRtOvEq0Jw4JCzQ14F2E8e/q1mPI2NiU3lXxY4D3/IPQQ+LrK5L8+JeiXJNDOsqYB1Z7HcolUvyeK+q94YVPU1B7+EBg78A52fxXKSprqGHvFXNWp+jac5L/d/QNplew6A4p0o1N348wPwtxRXyis54K3Iozakf2yulavieyp5QA4pPDTg1wH1HWyMu9dRLFZFDXW+KeLPpNYj4I/AdNs6BOfKBjDabRYzL7RO/ui1i0nxTr5N/lUwByjFKl7pZzZHGACdw69J+l5rHWKBHzYbuUBlEsCs0KmA6IJD/6djRGWSYSQ38BMVqDhqISLeebZHAqyRoMDK9BsSvFfgxN4LmyVVA8cy6c/DjNZfRhjc69kY0yGD1ZABbFJE70+NT6TDgR8FwkP1oHmqAeDLkkh7Qe6QAIr1GTDLLQVKi1FS+zAeMzeL8YrfE4UM+Y/3e5mg1f2V0Or8W6OceW/MlA4ipGejBiEfJ4aMQxAmLWofwLtNrFGx4pHCrmjNrAxkNsBbEsQNeoxdiFOYVcmQyvQa5saF8mEF6Q7x5Nlgu0CwEA8pn5vZFkgS+bEkf0Qvk0uE7KEFkTUAk0/2mSPLHNMKEbwqd90fhNmoiRndeH4UVBVfr7tbo/ai2o7mTArwrm5X27ESIR14qg4gd1GfxXh4NpFJGMWePAr9l4945f+4NKmMZHGDNmt8YDb5249ytV0foCArwZoY7FVWDmj8x+DTxjHb0RCU8Tdz0Ut0SD2TSqzfHDhTgvkJTqmtKTTzECAJykqPY2OhrEHuBvfmxWfjGGZyy0yfOHUJTLwQGbghqYMRBoV88QPNTDVHgK1jPBr01ioffxkVtXpOsTgF+qMZAZeClWK23l8s/lHyx5IjpnREmijJ8442QBq6z+KGgMVCGpotFEEeOGiEcEeIvozeXXmMPNDdObLLUVBSkBd+V2Tl+GMRx85qnuiaSbPYXygvj15HpNYy71vRgGgd/Bm/AeCWoWc1VlRGOsPzL866g5XYpPwRt4Xkc+N0cEQkvBDfBjLuF3wKrRzIa8bLYIJFeowLjT8/UxWsk7BwwPH/TFfH823z1ruUT/1S/q1dF56OZSEW5GkVUNIuFXCAMa0dWjEDNVx0QI+67emHpNaoMok1W4Eyjpt7RcDIQmWHI5KRErArOaoTY4pmqMq8H47XExjdkHPhdPbZGw7JA58xPOeSreau8/ogR31siPeFoKcO4iFRVpcbDZ8DqGRKKDOLIWxmTEetVI3hZ6TWoGfnWD6e7h0fE4UBCzVD3RZQCg2aE84rGnRM7/R/NTG/DWtOIWDwYi33W1vBZECTdJFpAFaUG7ym9Rr7UNT2i1NTdB2HiMiCAJTuG79y/i8ExRowE3s+4VwUd59TJeUoYqbjWVjUmDgxaZhvBB89GuF6JOqu7fSkvh9UQWwjpH1R/HWWxGf8HbA/FxCeDOCJQ8+MQ4195Rek16F++ieG+hwh+uLgw2DEPkzYWjn12fcIRvgwvqLVrkTSNQPjOi9qBxkU06IctvwL6feLgGt/Va8GPSK/xGoFmnv/5mTQyEkFoA1gFcUSS4aW7pETbF1v1Vngm+LbIQJ9Kh6mHaG0YNmoHcbjkKuxM49AjkuMNvBO2Eg+3xxxVZ1F3vEfU2FgzgLVX8gdB8BJg8foUVivZgUhvhBGI9BoZRelIing8TnR0BQjks13jRTQSDVGr99KByJbLNVX4UEAUorVh+LhDQBDzLwsyiCMSPSDRSLkYDXgbBBKldT68PK0HCvxRGh+Dgo99zZr6YQ1l6fHUXU2OA3sZrI74jnykKCgeNXUXGiEHAVvRNXNFgs+xqNHo0Nm8krYvPnZquJLoMFtZZxtEa8MwAkyQqBziAw1NBJRCo+TkCONF8FL1mAu08zoF6EFjJAMI1KzZq2zi8QDx6Jum8TravniUsMpUboEtr4AoNRUlYBGpJB6ZkcggjniUw9sYQUTR+J05zCt+IJF+tGEoyQ5sEB6rT3DT5lpRmUNeRtsXtwvfBDWtXu8jqdibxgl4J/epOeivwzgEuJof6FWM5HD+ke3ptILqUVOrz4KUmsCeNx40CsNV4Qo25k10ILLV/JWpLkCEPkMfNRUpowFnAMeAjzvAVUSA99CByB0PrwC3ow14Go7mCTVWgG+8PyNYB3FEpa0URXYg0jtIr9FeHKNvX9yR3Ea7aAkH4pHwmdXlScSORCVvoQOR+yXONTVqLtZsvINqtIBQFql4vlCD4nJpeQltXzwokV6jV8PZA5NPIgAvYLdtOCMYB3FEtz2uUsqw/ek1RtIGRO+WaG0YYsDsLAHXZEbdaFQy6ECkzW/t2puZDR96JI2YZGCTG6/DL4A0uExJb6ADkdcF/+itRDTc0h+PKGoNM+Csc3jNSY1jfe6Mcoa24W1fNI6TPLjhZqzQcK/uxsKgBuxLT2IEhyCOmGT7OxDZXVRA1O7MHuj6Axo1ScEmTCOYB3FEVs2Bze9AZJgoyuTDsbwr/AfjCgNxUxL4ONW8tHEiiCNCXatN70BkxL7MdsDHLwLZ2jDcpAH+em5khAuguKwWe9+ByIaIKWo/JtP/qOfUyAGf93nyjlyxOo1Khh2IjH0UG83WyPQaxvswkhKlpmIHOLAb5viRSQZxxKiR7HfbF3tNBBjaeBkx6PnI1oZhJzVYKjSCQxDHkjVK/QHKsNnpNW7AdGzvF9Hogdu/ND99INEYPlSy6x2ITDmgifQaml5qavYdoycQ7v4ygkcQxzfQmGTXOxD5u4nNVyb+xM0qwkWIHj+ix0gcNSAROA2pfqgiOxBpy9NrGJSaenARvgz4H4NpEG4NiaMxyZZ3IDIj3M+VeufakN5rIkpN5U1/j+xjl6c9bUytNboTFXqueBK6fCKIIyrZ8A5E3nkS8w/02hj8gQbWvOmmX8tSHUBYrpkybIE0goj4h9WoZL87EJnlsEQ31oJM5MxNTbQ2TAR2DEvsMIJXEEe0emU73IHIf6wAg5pYvIg4KAzs0IAQbMhcvWx8gjj+Y/w1FqpaQtve9BqJteku6s0DaCHoHbZAmi9XDBPHYf7W/uuUDkTa29aupa7NjGswEXxXBmLGYAmkOU/7ExAPI4ZYz2lvOxA5Vgzz/QEIhDmCEnWtEWOyBNIoHv/gxjQq2ekORPqNSXy6BJpvzfFQWhASwsYacOYmyCCOmGSnOxAZSwHyjG7m7US0NiyOKNw5jkQa/5eImYFK9rkDkVFm0msYlpravEZG1S0ULFMOl/PmqfQAG76bkcPDFkjzJh2c8+Haq2ObOxB5V/LRrl2x+Qxo6gM1KmqeILZee9sVrHTRruFRPWeKBcMlkOZu48Clga1pVLLSgcgsdvQGY76VKXMxLiDJUVCRPiHdDAqKDA2L6gdgwyWQRjKp/qkalax1INJ+3mDMmH4Wev2RQ2MiqtKgTh/7rHkEsyWQvhYDOAZxRL+bOKf9bPvijRnEGMt8q7jUkTUmuhkWAFzgsPAekuGjknpf5+ykOsinnWhffQXLDtsUGKMG2eEORO6OHq9hZsmP0towRJD0sqkMCpPfv2QPB/mFxV9+gmZLIM2fB4SvJa4T+lY7EGkrbzBmYCv9dVyVRsaQ0Kh9A6ap/4KBvgEA8W1qtgTSBvAM4tixRiXb24HIv76PDRYqjJ2amLYgo7dt1r01llO4QZaR8d1oCaTbRrNpLCwu7G4HIkOVkWX4piwssrVhIbCRNiasSk+LEtZotATS+SIgIUzjgqxIbnvQgUj821mS3LmVtq9dukZGZ42qewel4dFd6GmeukYKnjyE2yHmeAKM320T276YHH7vZ8tornRYsrVh2OjvFqz0MkI3o2G2BNIGyCOIo+UORL6ZrRvftT8rpTcFtke2NgwbI2K7Wli+C131ynAJpDGocXE6pxLUkA3sQOSOh7dUsmJTZEOj0PEyjVUZLDMVUezJNoR4VwZu3PZ1IDKIODs9YBxTHJhsbRg+9tFY72rKrOQcxLEALcR4M7vX9sW6yNauWSndOPXoWjg6MHp+CAxPPXTrWozxlMS4nSB7l17DZPoT4rNFi0d5mCILPB0RxFGQ8eF2rgORIeIqC/lvaa0NEwPDJZDGoX8hVGew/A5u3zoQ2U/3Vqp7obY2TEBioso/2QNMRewnytiObetAJPHR0ZfJU3EVxCPuQ0tENmgq/Qz3II61aVTD/nUgUn97Vrgw2gTU1oYJSa+wBdK4Iq69hjixO7oh275oz9JrWNvud61aFMyWQBoLlWEM4sioA5FPaKMYKJyVaBKU1oZVEyQmoyPzFbSHMIij3Wz7YsRWlIWOCdFaG/ZdtZg8IrKDqeUQQRwFGimIEcsuEZJMr2Gt+o0b0IKyeVNdkkYQxLFLkaJS37q96kDkWhUg1U1oc7xUNqK1YaIyBHEpI2h0r8SxbZFGvmQHIm1Ueo2iDqpNQG1tWCNaIMy1QBoPLwWDOCbWAilO2/apA5GNHguwWOjx1khTX1gKQBd0sRqiTRyohm3sQGSc9pS1jPSRkxGlpopLcnTv2CPBII6hxZqI/l970oFI/U7dw+/Y2hOlxStMi6udo3MEpoyCMYijTexA5LWSrV2zVlOn2rgWmBywI7j4wubE1mIpdC02qAORT0ek10iuTRIAo8AmCBCZx8bnBgwBjwgVimrYwg5Err4mqx8RxO77rWiRKRmhFxBai40Jt8Xq+cgORNqcG4xJYXr9sLB4xO5qofljCJ2Aj40xiKMN7EDki8C/SdijmP6j5UmUmio2Pwo+MiCuXWI1EV0LFE3tFmlnOhDZIPHooy9lNQ7h1rTYXDH3YOIGnQu61+KNwxLjh9qp9BpaU1sbtssgwekSowcwMsYgjqzbvtixDbnBGBMfc6ZKTc32UlpwKiWuUQ2XdkHsPxd4fGV7coMxOwq0emum29WiMzBKV3QFGIM4Mm/74mZtBTmJCohb1iagtzas+pTC8ytQ/nMYlIHIMifyGMmG3GCMqUeHM2xtmPCUg9MRfQOwqAkxw2LGJjsQaTtuMMaCr/xaBTiDxLUF0niCOOIKpGHb2r4YPYOyepCkcxisLMaOxYba7bO6NDZdFXHhYEKq5b7IYSvSa9TiZ7V5BfEq0BLg3yP1Qo8OgzgmFHS0Yic6EPlgZHoNK4vMOCp/RhUv4haxPu3LDYj6TXhfZAcibcQNxlj4tBiNKDVVCmwNa66C94JPlBGEavDpQKRtuMEY640RfgiNGA4tkEb4JoTOMWHNnoDu7UEHIns/iLJ8EGD01ETuFTnQFNFTLHx6M4RPtGO/2r4YRJy2LDKLhd2kDcPtWgeWBF8ZbbWhTwfDvkQWd423emKsxoPznGR6DesJkpvSnMBqSKL0P3ePcSHdZnUg8psSrV0LpU1g1Nqw9gJlwQ/Fu4nxZ2IM4sir7YtdevwbjDGDUWvDitWI4dMCaZRLzxsjnoNfAuOKPfsNxjBoHtKjaWmwXxioD/G53tcQ+vTSHZIdiPTgNxhzhSnNYNzaMNkkYmgNJYVCX2IIjUkc277owW8wxnr/KVKPLZ3XCqnrObYEgod1Pig5PPYNxlgqml0RgZgQw60F0pg3ukVJKfagtH3RQ99gjCWLCf5o2TeEGW4tkMZJ6PyJp5YQWpHLJYdHvsEYFk8jlFxCftfVoK7RoBqNatijDkTuAb7S40e0HvtGbUdLhUcztfSOLoij6GfVlvgGkp17TH4o5QZjTGDc2rCEknkOWtzf3EViDOLItwORnvYGYxiUnK1+hUYMzxZI4z7EXX5oLbguF09SgKe8wRgGu7qaJ1sbhhmeLZBGGz41HNFMUFTi3IFIT3qDMdbeDdC92+dN4ABfmMW/i/y3ak8Lr439mhwe9AZjWFRu2LGWDc9kKsUfwiCOuProw7sDkYV5zBuMsda9gETEbdZKh29loQXSqPo89bu1+HqDJOTwkDcYY+2Y4Y2RrQ1DDOcWSCMumQuGacN1itfOdCDy8MdjN3aIvpcAuUpQtUAaZxBHCei7hic7EOkBbzDG4qxxHFgyd0RpFfN9aPQ19v4LjUr2pQORSyffaMx2WZhpqe9WXvF2K8C8tAIdvE+nZaB/1S3ZgUhPl16Dyf8bSDWmEYOsBdIogziG1JiEou2LHu4GY8xgprVhmOHfAmnMFACtwpYlcQQ+ATHG9mDpNc7JpvaIx5ZZ7q7NYyawDYwxBexIByLrr4Yer2Gx8Rjwh2tWauZ1dwLsRm9cS0IjhPNUHYg8E/0ejDHsOp2daG2YpMgMWyCN+2wfEcRRGmNwsgORHiq9BptsMOk1YnC0QBq1jiyZ3aDxU5EdiPRErV0zt0RnorVhzxeEGRQtkEZekArGII52o+2LL5DdSmJtE60NS9qqlhWwRDXsE4ewRLxcaajQuJ5m+FFuMIZNfJ79yu7RuZ9OiHKR8sT1bWQvOhB5SPgqNmzVQVdDGqK1YfLiw021QBptEEdcmxKxtH0xbqGeLr2GudaGSe8AWiNimB4pNKphIzoQWRl5gzGMdkw+k5YYV4X24W5MFZIXtVEtEYXyHB2IDMig2IT4CAPjdJUbWmZ0I0hm/J+K8AmobUPbFwP3Rd5gjBlMtjZMZlQJiC9IPPskcrHSY9ZDDk9xgzEWOZIiCqiTGl/DVAukEQdxTKelog1SOhDpGW4wxiJjhSNaG4YZTC2QRq/bIR51A5MwtX0xQWIPcIMxjGaq6u9qxGBqgbQArkO4ae8mJDW6fSnZp9d4Qm2Vg8aThc+EjQn9rzR+3Zicyl+7W0oHImV/gzFmMNXasP4alR3wVfyuArAq+AWcUmOS5+9A5KORNxjD6hbJetCyo2zYAmkB6Af6sOUT9b27pGQHIqV+gzEmMNvaMMzgaoG0EIcXEQZxxNb2xVYlfoMxVslSPdnaMMQga4G0CNQAgzji+kMga/tikjeQdHqNq2D22NWvrOVHLpCkRdBhiUqj5TWyh5DzDcZYNPjpt1krQR6u9RFISzSII562L8q4A5GvTJjVpo7CmG5tmATB1Z23EoI44TCmV/DcHYgswEp6DZOtDTukRgy+FkiLFJhvQC0jHTqbbDsQ+QaUG4yxTORkRGvDMIOvBdKC/N2guyO+1EaGgeSaXiOzts4uyNaGSZHFg0dqMbQvhEEcEbZ9MUMYKXJV5A3GWOdHKQHr+eLf5I+VCkLJGIM4euYORF46Jb2GNei3WYsZjC2QFoQs4aW23PXYiaQ5Nk/eYAyztjyoblaVvIPOsyAFfwuk0QdxjKAlNw7SuSxvMIbBxoxDKqpSx228yG5e5Bp6SJexgdCYwN8CafxBHHEFIEHZ9sVB5TYWEoFZjUOhq1TmlazcAQdrbKiR/m7zZWxIKkSDOgXbhblxjWp43A5E7odMr2E9ClJsxUYlZR+/7Y1H+spdbr6GsYKE53v4EUiL46UhgzjKSluJKr+2Lx5LcbyGVRK3odgrUfjua9lBrLdp8AEL7dyPFUhbIC0MgTEQBnFE2/ZF2aXX2Ly2yujlK74aevDGd7+H9e6ttW+acaA4VsDaAmnR1mkb1/JSl8QYPqHsbjDGKgOnUZAZ6Vk+cxfr2mlWM6GTFF/Fy/8gnVX5gc+5tb87doh2sXNnUJ443HkajHEiPWgHIuPcmGJUxeFzxlOAj33mnBNxgmv5zM5K7mS2UJnCmmn0PO2Oj3+qSW9pQXFSnxli5ztb8Bu/8hUX/1LRg4O2BdLCRRjYg9RaKyOzti9mJm8wxrQr3pspqAkduUBxDtSKqTvXeI5phaLphMea+2NX+f8u7f8t43qXYt/87jqnQM8x2VllczrlnIShUaew1sc9ozgpW5IIZb9ZrFusdIj4CQNxRbKLpwXiEeEL+AIyGwPLa/xMIshfo2Km5WoUZLJbXbxzDkUrI+98Iz2OhRRNxzUnt1BXQRzlJ/Jf9tUt4nYL9m6uUguZnZozKPqkW85lqGNdaoInFCcVFaX6MffwhHUFd9tHTomhBdIiETSoBGvRL4cY/0I2q3MbZJNeQzdwYkBBjm+qJXJz6Mo6F6kxFU3HvOLcY1kpOceMVsDcYi27KHfn+dDziubMlZxxIafQ8FT7Ps45E9vDzZiNG7Yz4LZfFgjRD7cWSItVlADGII4esu2Lhz9WwOb4QcZjBgoyra57cwzlf8H+foKhFE3vfnapFOFYUkE9V1TX+Ydbyoy1nGrN0+xqA9UpXtpYBuC2/1HFs3PbZwAuLLGCapFBHKWm1ihtX5TSRd0b3ilNqiCnXfbKyXNMaQG+VqhomvheuapZ1tU5bLQK4pbC3iU5Nh9hsw/mHJKZZdanWfH02h51cht9nDPKWEzd9h1XatVtHwOYiyKuTgym5abvTRkSusEYw/NRh1aQs5Tj75jVxTl3sk0rmiZ8ZOY5L/VmDmNlXeb1Lcy2TucitZDZZHJ6Je/uxEY+phUf/4TipKg+bvuccwTm3PbrBy2QFszOwhjEEXPbF8fvXRqGCnlR99aWK15EQYWbY6COFS3sdqdeNfUTdQInzrCYxfFzuKm3RVl3EZ6mOI9YC492ck1PaaBjX2giB3i67a/qRaDbntYCadGWk+T4rFU/Mx7ZgUjJ3GCMtR3kpwkUZBJ7LcQzx6IWY7m8qB+kr9hjGoe/VkTf4vldrGtpzyeSs5QzI82nVPfUezqemUZWvJTsICcBBusTsCERn8CxFz/ZjbUSo72jyICEvbCoDLDzCArSxaKsc6wr80zzuQ1FU+WHchDpyTNfoqMXet/cQm2xnR6n0/HxTzWZrbgZs33GGB+47burIboAHGUcomM2qIS8A5ESuah7S/OMEbIryPu07jBRiYXTPzZDLtA3B6MobvsTHemYVvB22w/8gPETBuLOUVi2xiT0bV+Uxw3GWAqIl0xBTrHhghxWWj5zZ5NOh4qmKQ10wf76Owhl5Lbvv/C8Ko/Nz20/NHDb/4/WfNz2GIM4NoBqeLa2L1aqiIu6t+RjiKogeTN9I6+Euv5XrWg6oYmKy4oRs277eYtt6cyVzEB3Hrzd9lt9TuC2R3NUIpKWnzomxmHblcMNxlhZL/uNxOvzcZ8470iYW5O5hZpY0XScC3Xy5Bix6rYPVToCt/0uZguA2753bg++gTGIowfrQORYMZTl4KsRr0pBTfTAhQvjYUQWd8/0xcdC6nVEVcDSbnYp9uXnw8d/gqvbvpWygdt+hIRBTIM49kc836AE9TaUti8Kf1H3+wq08I/ILhVkimsu2T5OtmPpU+lL0fRTziad5TPnCKu1+VCmjzFLuu2PeaUJnMTNbd9t9cBtX0AHLHa9vwjREy8Zar/CjwHIG4yxUPVMw6SBmdnhph77UDRN7KAhSxSV7fvQrym3/ZkpKbqJsmrg7ba/1nQZB4pjMYijTIveVWOGFvoGY5JWZiFa/uSBgpyEoRXS5/BUqCaom3ZXm2nJ7IkJ+A9Ktui2H6aURKdS8zS74uy2/8CqR/q7Y7dK9wd2hrFXBiJ0IFLoG4yxcOCnJAWJFow4h7PSNFetoihcXtcoIrfhwyjM3PYXLnT2wSBw288aRAJu+4eAOUwjynFcgyJMxIji3mDMIS18URDL8i3U6CBQzmgTOEFdfMxxqbaJB/BwHttSHNz2C7WtU+i257gXBP7pGnvA+Kv3wzM8UAciA9smbGPTf5osBSuo+oZ1cKiZmedMX3zc3UW7Jxr1+XAErm775Zq3KOsQuO2H3z1w25c3UEppjaoVVNlxRL3BGNOrtfsiJ9qI3qvLMd+ZKVmboqnCTsUiHPClOkg0COm2Tzwyb7d9bWOH6EcyY3VidiDysa2m1xhozQpy3HO9toNJ7df47oqmXIZK6y8Q1YLX0MGnlVLn47ZP306OCmPydts3dcUs3faitH1RxBuMMb1UG15Bptb3iOhWXNZzLCspmmLORWpWYWjBh+OdCb3bfj7C5hBsR3lXcRKGRo1VLVe3/QC3CN32wupcgXjjKGEt1qG/83EU5NSrrgPjO2X2wdSvaDrCMHUIAjx/5ogh4LZfoG/FIXDbf/gTmnbbi9L2RVFGUAqL6TVGKkpBCvdH+gYZdlRFU5lV1SvEexJ+9DsiqrcZawZMYg9jt72ZSIR7u1ZaJELP0vbFvZE3GGNyMk/2/fC/5hYq4jfkGFMZmL74WMrymOEnK+AEJ3KE1FLYgzbCJTrmc5SSdNtPcgc/t325AwZ324NIhCKMKoUYycmLuje5XWAw8ljgAr11UKvu+1E0/YJilnk19HsvYGAMR0w1AcjLlNt+5jk3F3Ldsfi67UEkwuj4jNknpLR9UaAbjDEZ0+jGFKT2hdnmYNchTqFh6uJjgkRLYoebOgAnMpagzEcYPGK5fOasue2rKqbNkzTM8SjlBED4CK8BIhHGX70fsg5EHtlPlNauFWwxJGPulTgCaJHWVUGd3f7X0yt5MZah3iQJONGxBcW/C/BLn2e0rNz2w66Hu9seRCJMXh7nSIQvIkoHIo+sYFsxzL1Ej5i/gpxcU6LsYex5Brqpk9oW0l2KfXhZCXWAEx/JEVRnnwzgBKZi77Zv8gLFEW57vpEIfTVtH/TjxWj74tuQNxhjMSRjVkcYVVJzfoqmkzR8Ue5hZRB4Dk1UWoff9hxf0v6XxF0q6LbnHYmwnGO52Ykw6APJEYiYj5kcrxFUdTxiZ8S5x+IIpfHOXMmkdiiaRhsO6bkawJQHckRVDsBpVexgUDDiKoFue66RCIHbHkYiZNP2xR0Eok+vcTetpjxk8+Zu44L8dURT+x2VqWjKfd5i/TF6EwFlCUuPcAfLiAjd9kQkQt5ue7OJfIJuB3sHIjN/z+Botc8AqlGQyW10iY46Amql1PU9iqLpWesMRhy+z3vAroXF/1nBr31OiWJ22+dDRCJk67Y3n8jHuAORGw9EfYMxe9G5SxDiRAAtJKOYil7nsyqaumipf2SMCCjVEVaFwNiqeDaaMIhEyMZtzyCRz902i3p8Zfodda/TkjGKgky7697EfZv4388D0BcfOxoEFSVC21dclscMOoPKcQTTkwePREhx2/PVLoLwMXpU/eM1LgnUqiCnW3aAI7SGK1XR9CpnKad5RCzzanArpiOuTrsSwCnX7YirrK2n4eu2/xcI02uYb7nJLaamhWQUXRflXlpFU341V4KGpV8Pfs8ITEVw0aASRwby7y242559JMIrFuQGY7TfVZCBFuci1ZGBekpHddbVNwPdPSPhzgDT7dgRWDD0QXoB4OC2ZxCJEGVXxhsynV5jxztSkL0vxDNHEqq4TaqPrtrTLrtAHBtxANNvS2RaAoziLwA83fZEJEKTbvsfhfSi7vVbMh5h0ZY58tBdJ0pAXXzM4xAIKBxwEm2LTPtwBevChDpyUx03l6POUqKdpOGYEznKmFY0KsYmL+re+RnUkyjIgUp0pKK3KYYeZOwkDNXNf10dcFKGHZF1RsUATqZlORG98CaH7SjTKTSce4fKtBpCeoMx+i0Z81gpOUc2ar5f+uJjqfMR5s/5mDc8Uiu22Q3Xb5fMnkzwb33cCxR37rHUfKo1l3XMK1k/7tOxGDcYc61RFaRmKVlO9VZFX3x8gBT+PHltGOHZEVowT86ZqpEBRTQdaZgzU9JmhYkZbHhD2mHDDzSZXiNUJjkdaUkuBpP5/G/PGjaAH9cIaEJswsKFggDhjc91M9/cVtRmsd5gjEFLRnkpemn0/G+j9M1t8fHPAU6hYbEpCIY7mLdY8XzpS2HP2Phkwd7XvbupDEQuORaP9AZjvqnRIz0sntExrbgrR2ryv0BxuQylaJrcRjW2z2lXOrTBHbE1Ey3QlyqQ8VnXemrucdclMz3zPaEj9fdxeiWfmZLzD3e4ptt3/IdUxO7ZQpHeYMyDDFoySkUM8r+t7cyUjMiDhd8O3Sofz38K1c1h91KZMD4Z8F9HKbXHYvquq6fxaJ/f0RSkje+qcfGBZel8R91rvTRAhmTcaPuODNXk7hRN75R3MxzC9QFOtWbKQlvP43aaYpgWiyk6Xcjcuxi537NKR5Rp4jR6AswyF6TGZ84Fe1fn2aRTNGvjM1YuQ51Cw+1UNezFutaMv4lfIg/iJxseXYq5Negdr9FlNgUpOrojSd1VjlekLj4WnZM1C7UNcMIT5apmBrpznIShTmqozsQ3ZVWCUBygujoQGp+dxGJtfPaUvrS6c1r49QcJqYgcRZ8BoL2oe+2WjBLVNZ5eyeGoi4/N3TFrL6J5CXXs9cnhbAXFpoLtcTE+E4eExieD34mcDvzfdkVIr5Fl1oA83ZzCkauWzF6m1VIXHyMx3dM+rlXW4AiiWWcDg21xNT6HO/9wM1cUMvFqWRufNa+nrnG3x/BvS26U3k5KhOk1ND7TvKPUQoYfuRjXHOmqxCG3r2jqY8HesSOVVTYgCjnhnoY7Fsr4zMrezVYy8YNvNRDrRd3/OaDbklHGWj5z6elFoPzbMfwZcQmOWuWeHVH0/vDoMDPjs5mKhq2qHdbG58jrTlt0+jp7zMnPBk5F/lGrRnuDMW9Qvudt5FiBgtzbeI6kVW8hqzYqAoUJh6J/UXZY/5QGStvcjDRnLiTsBYqrO00+goUCSAvfpiuhjonxWeoo/5Wv8cmLBfpGnHlP3RTii7rXasl4GlXX4chbT97JGoyKQGHA5QOm1tO8xS7Yu56WxN0gQh97DUbcbYNfMzYa47PakndNGJ9YdIH+EsdkJwAqFSK9xh8gQzJm9nekrqzF3bNRESjWD0PAJCLmj3jdmyOMzlyJiY/+OnLWXVr6Geje3bonuYO18Zmpo2GbXAp76AKEXECohH8u6aHxptfYsKol4xOS34yfMBhHuuJcBIpzke4CzqgYU5kYYOpr4YI4juv4IzE+kVEj8evl36sIF3WfuSu0kIweQTlCMiwCpW7AmRRifutuWkccnaQhwOQ3sDU+EySusM0zUzLMfIQ1jX0Nzv+NiV+z2/gaH+U4H6+xnEx0KU3TjnTFvwiUHgEz1G1+m9p94sKK8dlH/VyMz9b9BTGzKlKQPEOIcIMxcfGqloweRGlYFYGSw7zbpmnkm4OenIvx2WHuhPEp2Dmuk2+a+K1/6uERp9e4sqIlY3ZG95nc8Sx67WhRWBSB0ikgk6lldJjaAd03bDOh5vnQqirOI5ehyvzYZxgbn9FKqTPHzQnqSSliWl0pIvVAy4jTazxF8Rxlp2bUjr/jcXRnBvnfmjiUuaAW8CU372o/7UrQxJ+6FPvq6ruYHkvlY3wWIfiKGRl+pu1+UF/UvXFIxnOP1ZGukBSBMt+7Aio2tc0NhoHn7eJflHXDxS6YtfGpbqOsU6255nOP5QLFBTc+5XCW+D2JF+O6sqDMzGqUXiPOh5Mv/IXc1/FUKqLFd7dWBMrlwEo+zLAQz+BknqfxWfmozI3PSHA/nUwW1grsV0HWGyTADcZ8BlCkgkx+o1SOB9NKyVkrAuVg8OCkecN1JlrQG5+/ICbN+PSvH27FlAehiEPE8a4Bd3oNw5CMMZfEnePZFGClCJR/Dph1NmYYA35IszE+F2pb6X0P2VypXYRjbHyedtm5qhlmjDRGxue5xEMEcZQF8/eVCA819NZEuMGYZYEpAgXZ+PKZc6QiEfK/rbp/infiBgGzzYSG4Q9kKVsCYXzeBlsPpEXjczx4tmWBvkmCeTyUcHhMEFwx0ipxDS7q/u/WqiAVBTieUP5j/FtzRaCkBeSq2gwp4OK/mc/1nuuei9QW2RufJzpSE5lqLK7JJXEXjDhGQRzTyYFhCC9wnw+I+gZjum0UJtsgQzKmd6QrXEWg3I/5wA9zfSzgrNMxMj7TTWkgLsZnPgzDyFw+LMNimVeTAemJl678ZQEBbjDG7wNpIRk9qVJFMi4CJQWgYDPMPlhAjVyMzyjHOYcwPiUexNF/ZvkQL2H4YpH2QIl+gzEbKpuMUPyvHA+rOzYsAmVYwFnIMWF85lMxfDczNj7T5d3//aTi64E870gkEcQxGHHQOlGq4QbQ3mAMrZkskbunhWT0vMpZdH3UxccDAb43DuMTh9MVzpPHEN3bVjkZvBvrQxd8OHmDMfSQjGWV6HhkNZO3cfzqYkLdTyHsjc8NnIShaGcpZ/bB+BifuBRNBiHThiKD+h/2KBon70U8wvlAWusKNqYg6VZKnSNbYS0CRSkOxmcitKlI9iiBII5vczUKcuuhBbjBmB6oIRk9NMnz6TS3UIfMZagXY8srHtMK0vgUJIhjZoHpmTyAFNJP4yRMOErw0aABSMt+GMfTKmBJ3F2Uu6PVOCPNlaeujrHxWXmiGkcrg2p8omdQWDefuBFo0pSpIOcAgjQB0vQaB9c6dLNkSMb5CHM8Jf6VEMYn0zRQ+ZHGp4jfE3DP0v8QlcsnpojxbkCAi7p/gQFpIRk9Hr0t1LYxWhqyiml21QVbB9CxLRmtiiFb8jE+RVYmGDxDUH4XsWI69LViv8GYuCH0KkGeZMSjZjyb8XmWcqLdzwbyU+xkoggUKQRxbOG1haQ4Ytkg2x8T4AZjlgbiKkja9h2PQ3Quxmd1wPi8SHdzC2V6hgyLQBFd0HlTs4j0TfjONlaYpoEzvUZd+iGyKch3ie5BjM/WU81bbP95pyvrmFYwNj77yOss5cTuNB/aaaFD5GFUBIrgPBT8VqhDPPpVxOOiLRegv8GYZoP2Rj7VUkce2viM0oUl47PANv+rQREoQlMHjMH0UMJ9lGQiXvQkwQD+G4zpvSHys2ZeYqW+7TufHGGZG5+vWOaUBkpXcSHzFnvxzlXiz7wIFIFVs5BJ1wP+syKee3IgxM/6QqTXeNcxSc/coaRtfGZqInWHHIzPunsO4FgEisCncqGJ0rRY08v/QOb/ewFNA2l6jXKGV5D6F8/PYxqfvPK/GRaBIqrg9s1MQtlYuyZe6t1vSNNAml7jd3dL/lWbd2RIEWnGGCZXNadddoU1MDY+S21uyL5LX6ht/A/krYg+4yJQxOR/EEEcxeHLr1tBvkZE/DcYc2NJFeS0Kn5yKRqfTB+IoAWK8Ykp7EdLXVgoAkW0II7iRIt7bTLh3ayBH/6Luj8mkJoSklFWKWOLY2987n3Uymegu0Uf4xNt/jfDIlDEU2ZYm6soJHom4hUeIEjjZWD4m5FRTsLVKR/jE6aMZW98Drco65ILUARK7kiLQGGYXgAa5HsUg4tyjwjOEe/Skd9gDF0jL9A3eRuf4SjGp0gabppdGRaBIpjgbu1oQnAwIkJLUaibTDfW+hWdUZqWRN0AjI3PTvKYec5VpQjVjKi2TJOGRaCIxeXApHNFCMCcpRILCSXVhvyi7ul08jYyNj6lVgQKfrNkneB3Pe9I8NM/8cLW0x3yumrpNJFc+LoBWHAb9fdRUcHA+JSJ8qnIsAgUcXS2qQiShSazIs6yNIL8ou7pzDxnf4GMT5gylrnx6ZMyVl7534yKQBHnFAvcGIY8RZn/DHQryPpXCZDfYAx9yXc98jU+JVcEiiBKB59qFDVPDotuVKrxyNgv6p7GO5WOv24ALiljn1yuG45K+SlGRaAIwYK8g7tkxkNMvWRpzjc2FvIbjKG74caVgvG5WsL4rFfe+d+OaYX1IlDw/XFhGNlziQcv4x2IeBFr2bEANxhDCckoiboBWEqeRaCg1yBwowzaf9aaIZevuomjUVNbPBp9FIHC+IQpY5kbn7BuAE+irKMZFoGCCLMmjj8XKde4TuLlaywQ/Q3GUMgrQCrGp6fJ/xarRuyHkKrAHMRxj2TI89+I/6LuKaQXrm4ABJJvESi415YQB3Gse/sK7pbtGP1F3dOWI+b2WB7G52oRG58eJP+bYREoiAV3K55tKgipi5hgRP0Vojz1lVKvUgb+4lE8mtg9jHd9RSPefN83YJ3+6Lg+4lu21m+qkbNzyv+GNVyjVeOzqnZ4FI8CU8Z6RDF9GO9qqzC3pwVTEMfLwekLUCrZ3aLvQvc4imDXI+IzPj2q2DyMt1ERKDgVDWEaV2xVYDForTGsRql/7sWjUOoGEEbyLwIFJePCz3oMtXyZqgKrVY39f0MERTCkP9X43Dun4lFEk4coAgWfOoFh8DEtC2yKUgUW+n+phvyaisazbgA7IH4P4z3qsP7oiI0tiOOK6Ns4pQosYS6wlbXxCesGsG168tiGRaBILYjjiNQqsJATph4uxaPIQp6kCJTa14Ms6OjmUNVWvRT2NkCpAgt/nyXY1g1gL+VfellGRaBgomlo5OVEwZ+rnVYFFnpKskC823imExqz0TPRfW7xLMhbWcWd8EBFoKwtVzUlogviOOtsMHAIC1VgDQ6K04pUP4BOYpee1kpCm+pMsmoJSnbP3FFtTOZDGwhZRTH9p2iy5zps6L8TqokWDDpygobR0ARxXJB3v8BCFVjB6Q4A2SzWITc/CAZ4hk42hwEgps489I/uZRvBa91p8zozJS3VlcpmeIlQPYx3lGivjcXfA2PzFoe6Cqy0cbFEVZpG7Qt00hhEJ7VR/YgaUeVmKVghD62K4nRAntkHT6RY6xXLzL3yos9SzvmHO8ZCbduevw38d3IaF4GCQm+Mo5it3EK1VgVW5TVaBgWERhaDQZNBZo2BPgFg+oaf5sm+zISFLgJc63M2lm8r4Ytin/VplLLyyNRinZ023Zud+3eaMSwCBQM3B42NAvlyDslarQKrj30KXbTqHGqhuS500R1CcIar1X1AZ40Shsd0L53y33l5lwq29htnCV5jSmDweIq1buM455TaY97nnEhxdd8c39Munjz/G7aOnEAv+Ey0cHUp1KyIKxuLr00SlucAcIlqvaxLiK42oYdZjf5vSnnzBCGpV73+L9lvYOwf9ZUH2MGYjeevDGRXp1bt1/jueDpyQkvBvjaOcRCynn7J1qvAyqSz5SaVyo4RwF9X3aEfQMkuKsXUm+WmeIzJZwNldFfpnMHZgavqrNykirk6HNVOTa0KWk/tmDpyEow4GNI0LL+pFosqsGoeYYIwMrErJXWLEJTi3M81AcylNCQ4hF6WOWYuH/MqwBANzh5sdbDpgOwTBJymVrmFOh9hNmdqFRC2fkQdOdki36ezbJ88ZbHLlrUF9XcLAB1Kw6JCSB0VjiwzYT8q5+iiM4SQbPfKdA35Ta08cBEoggZxLDF3NlVgRZYaAFRegkL9N7yBUHkFnDtDQmfNsWqFwjWCkEEVnobEL3LG2kbiNbU6rjnT7ApOrRiW5uahi0DhpueFRWLyeRAjVlVgzWT5NM0hUV/HZK7/aJ21BoBjKcxFOza9EBxTqw/f/YmASQFeU6v7uVjXCg+wB/+Juk/CEI6OnIwBI0fy2KdV4KpZVYG123YhvMgVoipMiCgyZh4SEppqJgoDPIK9Ee9hanUIwyJQOH2ow+cQbYnDwmd17KrAGuQbmiHFfm4p7YPjW9W6B4RkvmcQoqqMm4b0PsIDLgDsjdfUKpehmujprOR68KlVgVUg6MhJek5BHDtlWQVWTI0K7e8ouQO/1C4t3iEAqDgHyUkg5C0weyGCTK2OBQzNa2qVY1HWrYA5D/vv9NxTfbw7clIJDGNaEWNSMK0CK3+RAOCilePfc5Ddb3fjEpIHVPKUAH7rYOyFeB1Tqy+fN5H/DVZcUhH7n3tTsBpMxFVgHey3hLgWkwSluBDXrKSCoGQHcFTJqEQXxrM3IubU6jql+urSqo82h1yPB5xajVjwq3DtyMkCfYNBHJvnUQVWXFZVYD2oMFFqiHY3KaFoi4irErrqD2mqxV8LCR3KTWvS+f7SatxKPNXUqv2OnknR9D6MO3LiD4slLIThzwkLj1KqpmI1I+Jb1LqxeQJE8RYC6G5UPtXsoJMS5acI4STcVOczAH5Tq2qPaYUYUytBH8abX0dOqiKCOOKtAqtogwCg7AiJ7SpvVae+jilE15hit/zXAfZCpDS1qnq2oO0IvKZWNZbmQaZW0et8Vl4dORkRzrVYhRXon4xdFeHONTMafuEsAK6KGBwYQuqwSE4nDPBKxd0gFJTW2RuxQ1MrWTyM920z7MjJC8DHzGIUiODeiN+qyKNohnopITTbSe/6OytHHLO5DGDCJMvyhB/gaadEDLE0cMW8plaT3BFT+lOrSKWaKwKF0QNKhGsdbxVYmxX6OqXlagD0cUyWXO47A/hboeoGAPirboG9EBlPrdbbzUmADLymVsOULuOpVRVpeRSB8nTgh2wRbxVYpfsIwF/zDEJYgWuGFgcHhLCg8HBCP+dgb8QOTa1kkP+NfREofcPUwtZf2Due4hpeVWAFepgkgJxplj78X5FCXJNKW354gQkRpT7tfGG/V78C8E174DS1qq+LXadrR5JTq4qZF4EyFDyYE8nyM8JzrAJrVHIXtk57id75cjXH8v5JzHcH4Ou9cSMveKSp1fBx2U+tJnIATK2GvSh3F89PYgUV3nWiBGyLQDnDomEQR7xVYKUMK52P+5HCW7FCWzfDIrvmF/QDR3lH9kK8qKnV2xgWgcI/iONv51oFVvk5WqcRtvFOhAdgVUYmdHKSfxaLAQwJ6uyNeMKp1ULAHAGvqdWJjrS7aGeuBPHUCn8RKCc+kvUgjucdCYcqsPTnEZbsU+CvhaJNUkoZFGFYZJDJ5Gf1xm3E5omnVkmiKtb6r3BqNdzCbBtPCg/jza4IlBuHtfkFIw5tFVghWS6kjkjZCVqjjW1KVyocmwd6B4BTe+Oml/K+plZ1DNMFffGxNPNv8XphEMcLFGe5CqxeuFWBlU4WIazAU4ZEe3Yh89cAqLjEo1hD4NO9bsm9yBlra+rcwJvVwmtqVXMhDKZWQheBsjmYTtjsIcbTrJj4qcMOpJmjnJg7yDfOL/yVxisJcY0K4HDsjdiPqdXGpDi18k/bCYsiUO6YCOKItgqs5wj+37j45z+fT14DspgsfA15XthC7fillgDg1KpWxVotTG4jcmrlL0b+NwZFoEytb1hptaUqsJ5vQ5ojK/v4coGW9OJr9NP8Uif1Qct5Ac1B9mdqdQ0feDpgfF5Tq/SzDwb71KrJ3VkuAmXOUqHnwUT4gEruGUcVWEVCijdzyouc0cVDNnpqJcDDePfUM6sgjjmxVIF1jEVc/gEHNOQSiBvTNlgfSBp/c766tPoF9VfYHJxa4X0Y7//apmGQvLxhE3bQVoH11j50fd2GFKwScTU8sH1Tq5JLKrEEX11a9Z324p3LHIDlYbwtFIFyjcpMEMcqJrEX9yqwDE76u19CG9Lw074PQHvtK/DAK5xalTjk9s0XgTLdjk08C94YtCqwvFxFH6GA1nhNrUqe0kCn0PCMNHOcWg2V3nQRKDcFgziulJy5KrCkI/s7tZoKOCbAa2o1F6kL9i6fQVAUgRIAbdHZB0vyD2lVYMlH3tLUitnDeJuqBDNXNTBArpkqsLx8hQ7RfJe3yGtqte77qahwBlOrrKM9nYkiUJbEHXQvgUgq/h9BqwJLRrL7U6vjAdnYR80ip1at+zMrAgV63Yv2+bA+tZppVWD5Smis+AimVsb534yKQDkYEcQRQxVY3vXUamvnCWYNyuY1tZp5zh35TK3MFYEys3xgurXzDWd5zKhVYPmeKCU5tcpfcZtazUcosfhI3z5JrQLLJvNLD3OYwyzj7ceTTK1aXQrgNrWaxI5J7mT6GccaC9R2mStwXffZtSfShoJPrX73lJgc8c2wj+vGIv41WzK1IlLzvl/8bh5SgeVseZR4aRV2TeyVxe/msadW5sc77nZ94oF4yKlVvqnFC/FQU6shGjSYWoUbEU/E802t5guuq/priRP/nE3RXP3X7L9m/32x7elmWBlU0SeDJg4dvVrE5f+LesYXUV/cf5r91+y/Zv81+685R4nd2s8lL3J4dHcIlR7ib4n/Rr0zqOYRTgun0NT+7gmn0KX2cw44hU7aw7zgEDpHbIO1wyF00RcJOIOKt3AKSIZF9AnWT0SRgeQoZ22bbP18PjHIP/bP7Ax6rIcLsDOor2PutOEXmB1BST2aN0cBZiXLV83+a/bfF0nNTk4rclWmIsvMqumk02QPGPzXXgtXfudhgiuG98RHAmKFvgx91fcB+OtbniYrx3Xd5+DKXlzXdb0ofum3APiv1EwGmekiyztnOCi1A8ADmBkPwF92gk6avHmC8XZWdQuTyWrfO2l8rwgAxbtkIqFdIezUUcPXa4ksNxMXCWD6d3TWfNQEoadF+fT+FcIG2VnDD0pWg1ovotTp9Q8Yk2MlrBfW0urqFy3t2ADujqc1XPdn1NPXY32morvygqj/bM8gPEP9N+gcC0JipzZVvs1riVyNysNZdTyQ8mqbiDL+Ko0Sivjz/9R1XXc/nf/Oh/V6xhUCQBaLdQ4H4CgvaKb8DE9rnBji8LDfD8DIhK67MgPYlERal9tPyh6Fvd6NS9HSXn635O1wassbadQ+t0OQUsyUHhGMk0yg/+D7A3gGxX71HFdumUOh7Agh7JXkry322c+l6vEq8HbGmQEc4hHUjgYhd5qaLp9OGgAUrpPiteth2cI8sgcjLWuSjbuu23WCFX141ZQJBhZf9ru3t8NNAkDaqKhtR9hAW9Pluo+ibgacACQfrL50F5f2+6Hgul3XA6ybj/FpZbDr/hkvhxc8ivCg6jaoX/gX47kaOzVOCUZkyXyrbPWZy35Ypv9jQ8NDuH/dymFizZJHeGfhR9LYOPmh/QZfC/54Xo7eSJj8JrrFuPR7+6jic030ui5rlZaFFeR7u/2XpC2+HViX8NrKJsPjlUDjgLSXYlfBuSxvh5l0F08l0NsmhSEhwV72Li573Q5LPgoA5qay2QzgEt4ZaL9cKiTThevXFDJpren2QmJvh7YOAN/ImmOP9Xrbbjjw15h61M8MYEHqawGc+noAzET4epgWgL5o5Gu4XvWXtbej6CoDgBXLvhzABc7jbTG+7kvum60+7J01U25NuBHF0uM/Q9t5FLNHNg2gq27dNI2/RuXru667K6+H8hP0A7gEebDnLPKKwjZho4zPAQB/Zqm8QQAj4jpplPb3SMWUpjfSND6GyqN5Rw+H9+3CaQPUp0Eo3qEmju/YQnKfWHYK4Cm5+gH8wISpluMLaRNCpSs7Dgpz8m5Vf2HLGhvzt/FOMc7DirXz4m/ki/F0fuGnmJ9AGiitvgM/0D6JSjLvi1XfqhBRbHQ9nicLSX1q8XiPuljMLV2grMBf08vS0ALga6Vn8h1rZqN5X/CzC5d1y/J2coj1NXlWvQUA+ctMF8Y/KMWl/q+7k3pkb9J2MVvP39xZtjwB2aiaMjTTZc10gPSNpcuD4N85n+P7AFyp3RP4SenCiK2o0deNpt9XMK02jyhhtxH3egwkJPeL8O/0AkpUXKA8Qv9wnL9AAC6S7R3pgvpMPw/zBwGotQSNUo+xl0F26Lquu5lvdJ3/EQHHIAth3PYMwI0oBkYXJO+0rds/b9IO4CvZ1wHgnTVGSsh33y5FX+ehEZxaeDUAZ38gxQkXJyXr+71aAKe2f3iiEJTsZEuaXAFGutqCa6Bv9IO48y8ATvdgANarmqd7UgAdARtobgDfd47HBvD5GiHJHtX1YYevVXvt3+odwY+w54flzaYB3N2ImA74H0r1oi3/LrwS20DnODKAa+pllQD+FiP1uK7r7ueKwD6drv52167run+bN76/Bvy3qjrxcb+gOb0NRHulHxTAJ58DIR/Qteu666Rs536s/QSnqmtlQsPNGUtR/JeD5HSSmanpf8MW2j9ozsMIuX7Xdd13MdxztG0GmNP9y84OzZKm+9ZFHI5tIR7gndT+x0BZ3tF13c1QP+I7+DWu626TN+9I6pqsGIW6SiJ9UmyilAEh/p3HQDfvuq77mMZXwfGSvOEDWY6ve6+1T7WJfum3LFsaEz3S9Sd4R7dIEnIpsxzufLfuxXb/zLIf9gD7nzd48NemsxnXdRvWvoLagxuct/EdZHnv367rus35BhJj5V8eNzg7fVjfP35QEQW5PrdWk59vX7XIwb4//34Q2JCVw+xB+/LxqVxziWhNT9aV9u3jK1ECKN7og/v2kdTdz0v+RReonL/ky8enz2SvJeg32NJ3bxj8O/Vo30B9qZHB+IG+gqOE/+9Du8l8BcfqXtJn/AftK6hX8OEX+w7yRD78ed9BXsCHgnzjeIxL/86/34gKfLgXXzjuxnXdHSYz4FZ96NwXjqsC0abM5ESo3ReOT87PNY7AV8K9uK7rfmdfOD54P67r7ue56OWdu8H5sP+ofb9keqspFPylKPS1Kx+2qH3j+OCNuz53bR6RCBO1bfAv2yxB+8rpdmC6+3f6xn868wHradf10Y30q33p9NK7co1UcAfa1063mpjOfoZ6be2LpyxbfECSfX/d59K+ffqAu72ixyz+Z2/xM2TzH7Uvor64/zT774t+RQA=;" vertex="1" parent="8">
                    <mxGeometry x="530" y="87" width="210" height="214.2" as="geometry"/>
                </mxCell>
            </root>
        </mxGraphModel>
    </diagram>
</mxfile>